<svg height="512pt" viewBox="-16 0 512 512.001" width="512pt" xmlns="http://www.w3.org/2000/svg"><path d="m385.347656 0-44.5 44.5v29.480469l-22.632812 22.636719c-34.609375-10.601563-72.238282-1.46875-98.265625 24.558593l-70.453125 70.453125-45.144532-45.144531-62.695312 62.699219 45.144531 45.140625-3.574219 3.574219c-27.09375 27.09375-35.027343 66.179687-23.855468 100.324218l-59.371094 59.371094 11.71875 75.140625 19.265625 19.265625 91.082031-91.078125c9.96875 3.261719 20.351563 4.917969 30.742188 4.917969 25.199218 0 50.398437-9.589844 69.582031-28.773438l70.457031-70.457031 45.140625 45.144531 62.695313-62.695312-45.144532-45.144532 3.574219-3.574218c26.027344-26.023438 35.160157-63.652344 24.558594-98.261719l22.636719-22.636719h29.484375l44.496093-44.496094zm-232.539062 395.851562c-13.148438 0-25.714844-3.703124-36.550782-10.585937l207.914063-207.914063 31.722656-3.054687c5.769531 23.066406-.800781 47.589844-18.019531 64.804687l-24.808594 24.8125 45.144532 45.140626-20.222657 20.222656-45.140625-45.144532-91.695312 91.695313c-12.914063 12.910156-30.082032 20.023437-48.34375 20.023437zm-120.78125 32.191407 41.832031-41.832031c2.816406 3.785156 5.933594 7.417968 9.367187 10.851562 3.433594 3.4375 7.066407 6.550781 10.851563 9.367188l-56.59375 56.597656zm72.4375-148.90625 24.808594-24.8125-45.144532-45.140625 20.222656-20.222656 45.140626 45.144531 91.695312-91.695313c17.214844-17.214844 41.738281-23.785156 64.804688-18.015625l-3.054688 31.71875-207.902344 207.90625c-16.710937-26.417969-13.582031-61.875 9.429688-84.882812zm255.03125-135.359375-25.433594 2.449218 2.449219-25.433593 34.371093-34.371094v-29.480469l14.464844-14.464844 52.464844 52.464844-14.460938 14.464844h-29.484374zm0 0"/></svg>