<svg height="512" viewBox="0 0 60 49" width="512" xmlns="http://www.w3.org/2000/svg"><g id="Page-1" fill="none" fill-rule="evenodd"><g id="018---Boiling-Water" fill="rgb(0,0,0)" fill-rule="nonzero"><path id="Shape" d="m46.639 25.12c-.1617237.000023-.3210056-.0394542-.464-.115-3.584-1.881-9.631-3.005-16.175-3.005s-12.591 1.124-16.175 3c-.3175039.1797712-.7077172.1723476-1.0181537-.0193698-.3104366-.1917174-.4918155-.537294-.4732582-.9016867s.2341049-.6897552.5624119-.8489435c3.857-2.021 10.251-3.23 17.104-3.23s13.247 1.209 17.1 3.235c.4069336.2140842.6154316.6780756.5053045 1.1245048s-.5104926.7602236-.9703045.7604952z"/><path id="Shape" d="m13 39v1.744c-.0000089.2302898.0794658.4535254.225.632.855 1.049 3.909 2.523 9.7 3.228.3579416.0499733.714995-.0970803.9339229-.3846391.218928-.2875589.2656592-.6708708.1222321-1.002606-.1434271-.3317351-.4546913-.5602662-.814155-.5977549-4.74-.577-7.343-1.686-8.168-2.3v-1.319c0-.5522847-.4477153-1-1-1s-1 .4477153-1 1z"/><path id="Shape" d="m4.642 35.227 4.358 1.452v4.321c0 4.86 8.243 8 21 8s21-3.14 21-8v-4.32l4.358-1.453c3.1599185-1.0511986 5.0903543-4.2397403 4.5570266-7.5269375-.5333276-3.2871971-3.3728464-5.7018428-6.7030266-5.7000625h-2.212v-2c0-3.293-3.885-5.9-10.657-7.164-.0604596-.0103308-.121665-.0156821-.183-.016h-.01c-.5190642.0053926-.9476987.4070502-.9867742.9246695-.0390754.5176194.3244022.9790741.8367742 1.0623305 5.555 1.035 9 3.024 9 5.193 0 2.981-6.526 6-19 6s-19-3.019-19-6c0-2.056 3.17-3.987 8.272-5.041.3573141-.0640376.6518645-.3166812.769566-.6600768s.0400675-.7236082-.2028329-.9933741c-.2429004-.2697658-.6129162-.3867143-.9667331-.3055491-6.272 1.3-9.872 3.847-9.872 7v2h-2.212c-3.32833719.0012446-6.16481465 2.4155252-6.69784712 5.7009029-.53303246 3.2853777 1.39463348 6.4726115 4.55184712 7.5260971zm48.57-11.227c2.3486151-.0010694 4.3511249 1.7018676 4.7273585 4.020152.3762335 2.3182843-.9849457 4.5671132-3.2133585 5.308848l-4.856 1.619c-.5236715.1689563-1.0863045-.1119158-1.266-.632-.1747458-.5238384.1081923-1.0901623.632-1.265l4.858-1.619c1.2958051-.4334487 2.0865294-1.7421252 1.8675371-3.0908398-.2189924-1.3487146-1.3831597-2.3399732-2.7495371-2.3411602h-2.212v-2zm-2.212 4h2.212c.2630475-.0000837.5087449.1312589.6547964.3500349.1460516.218776.1731443.4960557.0722036.7389651-.0842301.2127201-.2598078.3761763-.478.445l-2.461.82zm-21 0c9.065 0 15.832-1.592 19-4.253v7.274l-.4.132c-1.2932136.435375-2.1297019 1.6886336-2.0356739 3.049924s1.0948822 2.4876388 2.4356739 2.741076v4.056c0 2.981-6.526 6-19 6s-19-3.019-19-6v-4.056c1.3407917-.2534372 2.3416459-1.3797856 2.4356739-2.741076s-.7424603-2.614549-2.0356739-3.049924l-.4-.132v-7.274c3.168 2.661 9.935 4.253 19 4.253zm-21 2.354-2.461-.82c-.21682248-.0720881-.39161107-.23485-.47894721-.4459923s-.07859676-.4498181.02394721-.6540077c.12975649-.268007.40224331-.4373381.7-.435h2.216zm-6.494-3.708c.80664943-1.6257711 2.46712232-2.6518363 4.282-2.646h2.212v2h-2.212c-1.36637744.001187-2.53054474.9924456-2.74953706 2.3411602s.57173191 2.6573911 1.86753706 3.0908398l4.858 1.619c.5238077.1748377.8067458.7411616.632 1.265-.1809822.5184377-.7417657.7986078-1.265.632l-4.857-1.619c-1.31696992-.4384771-2.37870597-1.4271122-2.90985722-2.7095125-.53115125-1.2824002-.479391-2.732229.14185722-3.9734875z"/><path id="Shape" d="m26 1c0-.55228475-.4477153-1-1-1s-1 .44771525-1 1c0 .561-.217.8-.707 1.291-.8177149.66009192-1.2930131 1.65460559-1.2930131 2.7055s.4752982 2.04540808 1.2930131 2.7055c.49.49.707.73.707 1.291s-.217.8-.707 1.3c-.817898.6612702-1.2931788 1.6567227-1.2931788 2.7085s.4752808 2.0472298 1.2931788 2.7085c.49.491.707.732.707 1.3 0 .5522847.4477153 1 1 1s1-.4477153 1-1c-.0115739-1.0492245-.4845318-2.0401315-1.293-2.709-.49-.501-.707-.741-.707-1.301s.217-.8.707-1.3c.8178063-.6606813 1.2930956-1.6556643 1.2930956-2.707 0-1.05133574-.4752893-2.04631874-1.2930956-2.707-.49-.486-.707-.729-.707-1.286s.217-.8.707-1.29c.8092856-.66866265 1.2824014-1.6602664 1.293-2.71z"/><path id="Shape" d="m32 1c0-.55228475-.4477153-1-1-1s-1 .44771525-1 1c0 .561-.217.8-.707 1.291-.8177149.66009192-1.2930131 1.65460559-1.2930131 2.7055s.4752982 2.04540808 1.2930131 2.7055c.49.49.707.73.707 1.291s-.217.8-.707 1.3c-.817898.6612702-1.2931788 1.6567227-1.2931788 2.7085s.4752808 2.0472298 1.2931788 2.7085c.49.491.707.732.707 1.3 0 .5522847.4477153 1 1 1s1-.4477153 1-1c-.0115739-1.0492245-.4845318-2.0401315-1.293-2.709-.49-.501-.707-.741-.707-1.301s.217-.8.707-1.3c.8178063-.6606813 1.2930956-1.6556643 1.2930956-2.707 0-1.05133574-.4752893-2.04631874-1.2930956-2.707-.49-.486-.707-.729-.707-1.286s.217-.8.707-1.29c.8092856-.66866265 1.2824014-1.6602664 1.293-2.71z"/><path id="Shape" d="m38 1c0-.55228475-.4477153-1-1-1s-1 .44771525-1 1c0 .561-.217.8-.707 1.291-.8177149.66009192-1.2930131 1.65460559-1.2930131 2.7055s.4752982 2.04540808 1.2930131 2.7055c.49.49.707.73.707 1.291s-.217.8-.707 1.3c-.817898.6612702-1.2931788 1.6567227-1.2931788 2.7085s.4752808 2.0472298 1.2931788 2.7085c.49.491.707.732.707 1.3 0 .5522847.4477153 1 1 1s1-.4477153 1-1c-.0115739-1.0492245-.4845318-2.0401315-1.293-2.709-.49-.501-.707-.741-.707-1.301s.217-.8.707-1.3c.8178063-.6606813 1.2930956-1.6556643 1.2930956-2.707 0-1.05133574-.4752893-2.04631874-1.2930956-2.707-.49-.486-.707-.729-.707-1.286s.217-.8.707-1.29c.8092856-.66866265 1.2824014-1.6602664 1.293-2.71z"/><circle id="Oval" cx="27" cy="44" r="1"/></g></g></svg>