<?xml version="1.0" standalone="no"?>
<!DOCTYPE svg PUBLIC "-//W3C//DTD SVG 20010904//EN"
 "http://www.w3.org/TR/2001/REC-SVG-20010904/DTD/svg10.dtd">
<svg version="1.0" xmlns="http://www.w3.org/2000/svg"
 width="98.000000pt" height="97.000000pt" viewBox="0 0 98.000000 97.000000"
 preserveAspectRatio="xMidYMid meet">

<g transform="translate(0.000000,97.000000) scale(0.100000,-0.100000)"
fill="#000000" stroke="none">
<path d="M762 700 c-25 -11 -42 -47 -42 -91 0 -22 -5 -29 -20 -29 -16 0 -20
-7 -20 -30 0 -23 4 -30 20 -30 19 0 20 -7 20 -105 l0 -105 29 0 c37 0 41 12
41 121 0 88 0 89 25 89 21 0 25 5 25 30 0 26 -4 30 -26 30 -23 0 -25 3 -22 33
2 27 8 33 31 35 21 3 27 9 27 27 0 33 -38 44 -88 25z"/>
<path d="M67 655 c-10 -25 -8 -318 2 -334 14 -21 168 -11 212 15 53 31 74 77
74 161 0 81 -17 113 -75 148 -48 27 -204 35 -213 10z m185 -74 c30 -26 33 -35
33 -84 0 -90 -33 -127 -115 -127 l-40 0 0 120 0 120 45 0 c35 0 52 -6 77 -29z"/>
<path d="M485 580 c-47 -19 -69 -58 -73 -128 -4 -82 17 -124 73 -142 66 -22
166 7 152 43 -5 14 -11 15 -32 7 -65 -25 -125 -2 -125 48 0 20 6 21 83 24 80
3 82 4 85 29 2 15 -4 43 -12 63 -22 53 -94 80 -151 56z m83 -52 c7 -7 12 -20
12 -30 0 -15 -9 -18 -50 -18 -41 0 -50 3 -50 18 0 25 20 42 50 42 14 0 31 -5
38 -12z"/>
<path d="M862 383 c-21 -41 3 -79 42 -69 22 5 26 12 26 40 0 46 -49 66 -68 29z"/>
</g>
</svg>
