<?xml version="1.0" standalone="no"?>
<!DOCTYPE svg PUBLIC "-//W3C//DTD SVG 20010904//EN"
 "http://www.w3.org/TR/2001/REC-SVG-20010904/DTD/svg10.dtd">
<svg version="1.0" xmlns="http://www.w3.org/2000/svg"
 width="56.000000pt" height="60.000000pt" viewBox="0 0 56.000000 60.000000"
 preserveAspectRatio="xMidYMid meet">

<g transform="translate(0.000000,60.000000) scale(0.100000,-0.100000)"
fill="#000000" stroke="none">
<path d="M10 454 l0 -147 73 5 c39 3 80 9 89 13 13 5 19 0 24 -22 15 -63 81
-97 150 -75 19 5 34 6 34 2 0 -13 -37 -162 -45 -182 -4 -10 -13 -18 -21 -18
-8 0 -14 -7 -14 -15 0 -24 37 -17 70 12 30 28 57 109 76 230 5 35 10 42 32 45
34 4 42 28 9 28 -24 0 -25 2 -17 31 12 42 17 46 41 31 23 -14 39 -8 39 15 0
13 -8 15 -47 9 -51 -7 -88 -34 -97 -72 -8 -31 -25 -32 -19 -1 3 13 -2 40 -11
60 -17 43 -54 61 -103 52 -32 -6 -33 -5 -33 29 0 72 -67 116 -177 116 l-53 0
0 -146z m140 86 c28 -15 43 -72 31 -116 -13 -45 -36 -63 -83 -64 l-38 0 0 95
0 95 36 0 c19 0 44 -4 54 -10z m180 -149 c15 -30 14 -31 -35 -31 -30 0 -45 4
-45 13 0 37 62 51 80 18z m35 -81 c-3 -5 2 -10 13 -10 16 0 18 -5 14 -27 -4
-17 -7 -21 -9 -12 -3 13 -14 15 -53 11 -51 -5 -80 8 -80 34 0 10 16 14 61 14
37 0 58 -4 54 -10z"/>
<path d="M489 244 c-15 -18 -2 -47 24 -52 22 -5 42 35 26 54 -15 18 -33 18
-50 -2z"/>
</g>
</svg>
