<svg id="Capa_1" enable-background="new 0 0 512 512" height="512" viewBox="0 0 512 512" width="512" xmlns="http://www.w3.org/2000/svg"><g><path d="m60 271c0 88.224 71.775 160 160 160s160-71.776 160-160-71.775-160-160-160-160 71.776-160 160zm160 20c-11.028 0-20-8.972-20-20s8.972-20 20-20 20 8.972 20 20-8.972 20-20 20zm-10-58.734c-14.035 3.626-25.108 14.699-28.734 28.734h-40.619c4.528-36.128 33.225-64.824 69.353-69.353zm-28.734 48.734c3.626 14.036 14.699 25.108 28.734 28.734v40.619c-36.128-4.528-64.824-33.225-69.353-69.353zm48.734 28.734c14.035-3.626 25.108-14.699 28.734-28.734l40.619-.01c-4.528 36.128-33.225 64.834-69.353 69.363zm28.734-48.734c-3.626-14.036-14.699-25.108-28.734-28.734v-40.619c36.128 4.528 64.824 33.225 69.353 69.353zm-48.734-129.639v40.138c-47.173 4.705-84.796 42.329-89.501 89.501h-40.138c4.911-69.242 60.397-124.728 129.639-129.639zm-129.639 149.639h40.138c4.705 47.173 42.328 84.796 89.501 89.501v40.138c-69.242-4.911-124.728-60.397-129.639-129.639zm149.639 129.639v-40.138c47.173-4.705 84.796-42.339 89.501-89.511l40.138.01c-4.911 69.242-60.397 124.728-129.639 129.639zm129.639-149.639h-40.138c-4.705-47.173-42.328-84.796-89.501-89.501v-40.138c69.242 4.911 124.728 60.397 129.639 129.639z"/><path d="m502 21c-5.522 0-10 4.477-10 10v20h-86c-5.522 0-10 4.477-10 10s4.478 10 10 10h86v160h-64.14c-6.071 0-10.766 5.382-9.898 11.423 1.352 9.404 2.038 19.018 2.038 28.577 0 110.28-89.72 200-200 200s-200-89.72-200-200 89.72-200 200-200h96c5.522 0 10-4.477 10-10s-4.478-10-10-10h-96c-121.309 0-220 98.691-220 220s98.691 220 220 220 220-98.691 220-220c0-6.666-.304-13.357-.905-20h52.905v20c0 5.523 4.478 10 10 10s10-4.477 10-10v-240c0-5.523-4.478-10-10-10z"/><circle cx="361" cy="61" r="10"/></g></svg>