<?xml version="1.0" standalone="no"?>
<!DOCTYPE svg PUBLIC "-//W3C//DTD SVG 20010904//EN"
 "http://www.w3.org/TR/2001/REC-SVG-20010904/DTD/svg10.dtd">
<svg version="1.0" xmlns="http://www.w3.org/2000/svg"
 width="80.000000pt" height="76.000000pt" viewBox="0 0 80.000000 76.000000"
 preserveAspectRatio="xMidYMid meet">

<g transform="translate(0.000000,76.000000) scale(0.100000,-0.100000)"
fill="#000000" stroke="none">
<path d="M198 749 c-65 -9 -172 -60 -188 -88 -12 -23 -13 -61 -2 -61 5 0 32 7
61 16 35 10 51 20 48 28 -4 9 14 16 58 24 120 23 186 11 170 -30 -8 -21 -70
-48 -110 -48 l-34 0 24 25 c59 58 -3 52 -71 -8 -26 -23 -56 -42 -68 -44 -69
-9 -83 -26 -39 -48 20 -10 20 -11 -8 -44 -55 -66 -43 -120 31 -142 54 -16 134
2 199 45 38 26 47 29 44 15 -3 -10 3 -32 13 -49 14 -23 16 -35 8 -48 -14 -21
-42 -28 -58 -12 -8 8 -7 10 7 5 14 -6 17 -2 17 23 0 22 -6 32 -21 37 -25 8
-35 -1 -43 -35 -19 -84 125 -87 171 -3 17 32 17 33 -5 62 -12 17 -22 35 -22
41 0 17 25 11 38 -10 15 -24 28 -26 36 -5 7 20 -28 55 -56 55 -13 0 -35 -6
-49 -14 -25 -13 -27 -12 -26 12 0 38 -25 52 -138 78 l-30 7 35 9 c113 31 147
45 177 71 58 51 53 106 -12 133 -37 15 -70 16 -157 3z m17 -263 c22 -6 40 -18
40 -25 0 -24 -52 -54 -103 -59 -43 -4 -52 -1 -61 16 -9 17 -6 26 15 51 28 34
46 36 109 17z"/>
<path d="M545 589 c-18 -34 -73 -62 -120 -61 -16 1 -38 -1 -49 -4 -33 -11 4
-24 67 -24 l57 0 -5 -32 c-3 -18 -11 -49 -19 -68 -14 -37 -21 -56 -63 -180
-47 -139 -67 -169 -119 -180 -38 -9 -84 6 -99 30 -9 15 12 39 49 55 17 7 40
20 51 28 18 14 16 14 -25 7 -25 -5 -50 -9 -56 -10 -6 0 -23 -9 -38 -21 l-26
-21 21 -38 c12 -21 32 -43 46 -49 36 -17 105 -13 133 7 68 47 76 59 136 202
14 36 35 77 45 92 11 14 19 33 19 41 0 17 126 161 145 165 9 2 16 -10 21 -35
12 -65 8 -92 -17 -119 -38 -41 -58 -48 -79 -29 -20 18 -34 7 -24 -18 8 -22 26
-27 69 -17 49 11 68 30 105 105 27 55 30 69 23 106 -4 23 -16 47 -25 52 -25
17 -96 -20 -125 -64 -34 -51 -54 -58 -47 -16 3 18 11 48 19 67 16 45 10 60
-26 60 -22 0 -32 -7 -44 -31z"/>
<path d="M672 248 c-15 -15 -15 -61 0 -76 15 -15 51 -15 66 0 15 15 15 61 0
76 -7 7 -21 12 -33 12 -12 0 -26 -5 -33 -12z"/>
</g>
</svg>
