<svg id="Capa_1" enable-background="new 0 0 512 512" height="512" viewBox="0 0 512 512" width="512" xmlns="http://www.w3.org/2000/svg"><g><path d="m246.005 277.271c22.468 0 40.747-18.279 40.747-40.747s-18.279-40.747-40.747-40.747-40.747 18.279-40.747 40.747 18.279 40.747 40.747 40.747zm0-66.494c14.197 0 25.747 11.55 25.747 25.747s-11.55 25.747-25.747 25.747-25.747-11.55-25.747-25.747 11.55-25.747 25.747-25.747z"/><path d="m463.743 122.386h14.689c8.356 0 15.155-6.799 15.155-15.155v-92.076c.001-8.356-6.798-15.155-15.154-15.155h-14.689c-6.377 0-11.846 3.959-14.08 9.548l-204.079 6.032c-57.787 1.708-111.789 25.492-152.06 66.971-71.519 73.664-83.028 186.649-27.286 271.759-33.076 97.07-31.546 92.69-31.651 92.69-8.919 0-16.176 7.256-16.176 16.176v41.324c0 4.142 3.357 7.5 7.5 7.5h441.034c4.143 0 7.5-3.358 7.5-7.5v-41.324c0-8.822-7.133-16.176-16.243-16.176l-11.138-32.687c-1.337-3.921-5.598-6.014-9.519-4.68-3.921 1.336-6.017 5.597-4.681 9.518l9.489 27.85h-51.613c-6.133-12.233-15.254-22.693-26.427-30.429 19.849-12.954 37.212-28.972 51.569-47.259l5.951 17.466c1.328 3.895 5.572 6.024 9.519 4.68 3.921-1.336 6.017-5.597 4.681-9.518l-9.402-27.595c49.204-75.11 45.668-170.73-3.862-241.319h26.97c2.28 5.488 7.698 9.359 14.003 9.359zm-.155-107.231c0-.085.069-.155.155-.155h14.689c.242 0 .155-4.043.155 92.231 0 .085-.069.155-.155.155h-14.689c-.242 0-.155 4.043-.155-92.231zm-386.602 354.126c14.357 18.297 31.72 34.327 51.565 47.286-11.176 7.736-20.299 18.198-26.433 30.434h-51.615zm162.499-221.172c0-3.595 2.925-6.52 6.52-6.52s6.52 2.925 6.52 6.52-2.925 6.52-6.52 6.52-6.52-2.925-6.52-6.52zm6.52 21.52c36.886 0 66.895 30.009 66.895 66.895s-30.009 66.895-66.895 66.895c-36.887 0-66.896-30.009-66.896-66.895s30.009-66.895 66.896-66.895zm48.438 261.127c-31.099 7.59-65.059 7.704-96.878-.209v-54.325h96.878zm15-62.035c0-4.142-3.357-7.5-7.5-7.5h-111.878c-4.143 0-7.5 3.358-7.5 7.5v103.279h-12.802c0-36.285 0-87.297 0-123.581h152.482c0 50.888-.002 78.393 0 78.493v45.088h-12.803c.001-13.808.001 2.317.001-103.279zm12.803-50.302v15h-152.482v-15zm-29.048-15c5.329-3.771 10.19-8.162 14.477-13.067l3.363 13.067zm-94.387 0h-17.84l3.362-13.067c4.287 4.905 9.148 9.296 14.478 13.067zm-44.047 168.581h-26.27v-8.824c0-6.696-4.09-12.454-9.902-14.909 6.021-9.619 14.441-17.574 24.442-23.034 3.832 2.093 7.743 4.077 11.729 5.948v40.819zm-121.352-8.824c0-.648.527-1.176 1.176-1.176h77.73c.648 0 1.176.527 1.176 1.176v8.824h-80.082zm426.034 33.824h-426.034v-10h182.088c4.143 0 7.5-3.358 7.5-7.5s-3.357-7.5-7.5-7.5h-17.935v-26.03c31.615 7.28 65.396 7.308 96.878.194v25.836h-43.943c-4.143 0-7.5 3.358-7.5 7.5s3.357 7.5 7.5 7.5h208.946zm-80.081-33.824c0-.648.527-1.176 1.176-1.176h77.729c.648 0 1.176.527 1.176 1.176v8.824h-80.081zm-5.098-14.91c-5.812 2.455-9.902 8.214-9.902 14.909v8.825h-27.119v-40.423c4.282-1.986 8.477-4.102 12.582-6.343 10 5.461 18.419 13.414 24.439 23.032zm72.517-211.742c0 75.289-42.296 144.289-109.538 178.382v-74.185c30.079-26.346 47.258-64.118 47.258-104.198 0-53.833-30.874-100.591-75.844-123.499h41.539c-3.189 12.477 5.986 24.589 18.754 24.985 13.276.399 23.307-12.057 19.995-24.985h15.141c27.558 35.06 42.695 78.772 42.695 123.5zm-76.988-123.499c2.691.119 4.86 2.373 4.775 5.149-.089 2.829-2.481 4.945-5.152 4.842-4.488-.138-6.475-5.627-3.27-8.641.877-.824 1.997-1.296 3.187-1.351h.46zm78.791-15c-41.623 0-136.493 0-202.582 0-22.449 0-44.746 5.497-64.479 15.895-3.665 1.931-5.07 6.467-3.139 10.131 1.931 3.665 6.465 5.072 10.131 3.139 17.587-9.267 37.466-14.166 57.487-14.166 68.098 0 123.499 55.401 123.499 123.499 0 31.085-11.59 60.614-32.258 83.238v-8.843c0-4.142-3.357-7.5-7.5-7.5h-3.219l-7.619-29.608c5.746-11.19 8.991-23.866 8.991-37.287 0-38.405-26.573-70.72-62.298-79.525 6.428-14.114-3.9-30.409-19.597-30.409-15.702 0-26.025 16.294-19.597 30.409-35.726 8.805-62.299 41.12-62.299 79.525 0 13.42 3.245 26.097 8.991 37.286l-7.618 29.609h-3.218c-4.143 0-7.5 3.358-7.5 7.5v8.843c-45.615-49.929-42.451-127.444 7.046-173.589 3.03-2.825 3.196-7.57.371-10.6-2.822-3.028-7.568-3.196-10.6-.372-59.753 55.707-58.772 151.255 3.183 205.521v73.749c-65.652-33.692-108.688-101.868-108.688-177.946 0-112.171 87.829-202.636 199.952-205.95l202.56-5.987z"/><circle cx="347.829" cy="236.524" r="7.5"/><circle cx="144.18" cy="236.524" r="7.5"/><circle cx="318.006" cy="164.523" r="7.5"/><circle cx="174.004" cy="164.523" r="7.5"/><path d="m226.929 61.061c0 11.028 8.972 20 20 20s20-8.972 20-20-8.972-20-20-20-20 8.972-20 20zm20-5c2.757 0 5 2.243 5 5s-2.243 5-5 5-5-2.243-5-5 2.243-5 5-5z"/><path d="m363.66 78.209c11.028 0 20-8.972 20-20s-8.972-20-20-20-20 8.972-20 20 8.972 20 20 20zm0-25c2.757 0 5 2.243 5 5s-2.243 5-5 5-5-2.243-5-5 2.243-5 5-5z"/><path d="m126.169 94.246c-11.028 0-20 8.972-20 20s8.972 20 20 20 20-8.972 20-20-8.972-20-20-20zm0 25c-2.757 0-5-2.243-5-5s2.243-5 5-5 5 2.243 5 5-2.243 5-5 5z"/><path d="m124.269 374.375c11.028 0 20-8.972 20-20s-8.972-20-20-20-20 8.972-20 20 8.971 20 20 20zm0-25c2.757 0 5 2.243 5 5s-2.243 5-5 5-5-2.243-5-5 2.243-5 5-5z"/><path d="m246.008 425.954c11.028 0 20-8.972 20-20s-8.972-20-20-20-20 8.972-20 20 8.971 20 20 20zm0-25c2.757 0 5 2.243 5 5s-2.243 5-5 5-5-2.243-5-5 2.243-5 5-5z"/><path d="m76.574 216.524c-11.028 0-20 8.972-20 20s8.972 20 20 20 20-8.972 20-20-8.971-20-20-20zm0 25c-2.757 0-5-2.243-5-5s2.243-5 5-5 5 2.243 5 5-2.243 5-5 5z"/><path d="m368.741 334.375c-11.028 0-20 8.972-20 20s8.972 20 20 20 20-8.972 20-20-8.971-20-20-20zm0 25c-2.757 0-5-2.243-5-5s2.243-5 5-5 5 2.243 5 5-2.243 5-5 5z"/><path d="m396.435 236.524c0 11.028 8.972 20 20 20s20-8.972 20-20-8.972-20-20-20-20 8.972-20 20zm25 0c0 2.757-2.243 5-5 5s-5-2.243-5-5 2.243-5 5-5 5 2.243 5 5z"/></g></svg>